<svg width="150" height="20" viewBox="0 0 150 20" fill="none" xmlns="http://www.w3.org/2000/svg">
<rect width="150" height="20" fill="#C4C4C4"/>
<rect width="69" height="20" fill="#4F4F4F"/>
<rect x="69" width="81" height="20" fill="#25CEB6"/>
<path d="M12.4609 12.3184C12.4609 12.0254 12.3496 11.7988 12.127 11.6387C11.9082 11.4746 11.5234 11.334 10.9727 11.2168C10.4258 11.0996 9.99023 10.959 9.66602 10.7949C9.3457 10.6309 9.10742 10.4355 8.95117 10.209C8.79883 9.98242 8.72266 9.71289 8.72266 9.40039C8.72266 8.88086 8.94141 8.44141 9.37891 8.08203C9.82031 7.72266 10.3828 7.54297 11.0664 7.54297C11.7852 7.54297 12.3672 7.72852 12.8125 8.09961C13.2617 8.4707 13.4863 8.94531 13.4863 9.52344H12.3965C12.3965 9.22656 12.2695 8.9707 12.0156 8.75586C11.7656 8.54102 11.4492 8.43359 11.0664 8.43359C10.6719 8.43359 10.3633 8.51953 10.1406 8.69141C9.91797 8.86328 9.80664 9.08789 9.80664 9.36523C9.80664 9.62695 9.91016 9.82422 10.1172 9.95703C10.3242 10.0898 10.6973 10.2168 11.2363 10.3379C11.7793 10.459 12.2188 10.6035 12.5547 10.7715C12.8906 10.9395 13.1387 11.1426 13.2988 11.3809C13.4629 11.6152 13.5449 11.9023 13.5449 12.2422C13.5449 12.8086 13.3184 13.2637 12.8652 13.6074C12.4121 13.9473 11.8242 14.1172 11.1016 14.1172C10.5938 14.1172 10.1445 14.0273 9.75391 13.8477C9.36328 13.668 9.05664 13.418 8.83398 13.0977C8.61523 12.7734 8.50586 12.4238 8.50586 12.0488H9.58984C9.60938 12.4121 9.75391 12.7012 10.0234 12.916C10.2969 13.127 10.6562 13.2324 11.1016 13.2324C11.5117 13.2324 11.8398 13.1504 12.0859 12.9863C12.3359 12.8184 12.4609 12.5957 12.4609 12.3184ZM18.8711 13.373C18.4492 13.8691 17.8301 14.1172 17.0137 14.1172C16.3379 14.1172 15.8223 13.9219 15.4668 13.5312C15.1152 13.1367 14.9375 12.5547 14.9336 11.7852V7.66016H16.0176V11.7559C16.0176 12.7168 16.4082 13.1973 17.1895 13.1973C18.0176 13.1973 18.5684 12.8887 18.8418 12.2715V7.66016H19.9258V14H18.8945L18.8711 13.373ZM26.9453 10.9004C26.9453 11.8691 26.7227 12.6484 26.2773 13.2383C25.832 13.8242 25.2344 14.1172 24.4844 14.1172C23.6836 14.1172 23.0645 13.834 22.627 13.2676L22.5742 14H21.5781V5H22.6621V8.35742C23.0996 7.81445 23.7031 7.54297 24.4727 7.54297C25.2422 7.54297 25.8457 7.83398 26.2832 8.41602C26.7246 8.99805 26.9453 9.79492 26.9453 10.8066V10.9004ZM25.8613 10.7773C25.8613 10.0391 25.7188 9.46875 25.4336 9.06641C25.1484 8.66406 24.7383 8.46289 24.2031 8.46289C23.4883 8.46289 22.9746 8.79492 22.6621 9.45898V12.2012C22.9941 12.8652 23.5117 13.1973 24.2148 13.1973C24.7344 13.1973 25.1387 12.9961 25.4277 12.5938C25.7168 12.1914 25.8613 11.5859 25.8613 10.7773ZM32.0078 12.3184C32.0078 12.0254 31.8965 11.7988 31.6738 11.6387C31.4551 11.4746 31.0703 11.334 30.5195 11.2168C29.9727 11.0996 29.5371 10.959 29.2129 10.7949C28.8926 10.6309 28.6543 10.4355 28.498 10.209C28.3457 9.98242 28.2695 9.71289 28.2695 9.40039C28.2695 8.88086 28.4883 8.44141 28.9258 8.08203C29.3672 7.72266 29.9297 7.54297 30.6133 7.54297C31.332 7.54297 31.9141 7.72852 32.3594 8.09961C32.8086 8.4707 33.0332 8.94531 33.0332 9.52344H31.9434C31.9434 9.22656 31.8164 8.9707 31.5625 8.75586C31.3125 8.54102 30.9961 8.43359 30.6133 8.43359C30.2187 8.43359 29.9102 8.51953 29.6875 8.69141C29.4648 8.86328 29.3535 9.08789 29.3535 9.36523C29.3535 9.62695 29.457 9.82422 29.6641 9.95703C29.8711 10.0898 30.2441 10.2168 30.7832 10.3379C31.3262 10.459 31.7656 10.6035 32.1016 10.7715C32.4375 10.9395 32.6855 11.1426 32.8457 11.3809C33.0098 11.6152 33.0918 11.9023 33.0918 12.2422C33.0918 12.8086 32.8652 13.2637 32.4121 13.6074C31.959 13.9473 31.3711 14.1172 30.6484 14.1172C30.1406 14.1172 29.6914 14.0273 29.3008 13.8477C28.9102 13.668 28.6035 13.418 28.3809 13.0977C28.1621 12.7734 28.0527 12.4238 28.0527 12.0488H29.1367C29.1563 12.4121 29.3008 12.7012 29.5703 12.916C29.8437 13.127 30.2031 13.2324 30.6484 13.2324C31.0586 13.2324 31.3867 13.1504 31.6328 12.9863C31.8828 12.8184 32.0078 12.5957 32.0078 12.3184ZM37.0469 13.2324C37.4336 13.2324 37.7715 13.1152 38.0605 12.8809C38.3496 12.6465 38.5098 12.3535 38.541 12.002H39.5664C39.5469 12.3652 39.4219 12.7109 39.1914 13.0391C38.9609 13.3672 38.6523 13.6289 38.2656 13.8242C37.8828 14.0195 37.4766 14.1172 37.0469 14.1172C36.1836 14.1172 35.4961 13.8301 34.9844 13.2559C34.4766 12.6777 34.2227 11.8887 34.2227 10.8887V10.707C34.2227 10.0898 34.3359 9.54102 34.5625 9.06055C34.7891 8.58008 35.1133 8.20703 35.5352 7.94141C35.9609 7.67578 36.4629 7.54297 37.041 7.54297C37.752 7.54297 38.3418 7.75586 38.8105 8.18164C39.2832 8.60742 39.5352 9.16016 39.5664 9.83984H38.541C38.5098 9.42969 38.3535 9.09375 38.0723 8.83203C37.7949 8.56641 37.4512 8.43359 37.041 8.43359C36.4902 8.43359 36.0625 8.63281 35.7578 9.03125C35.457 9.42578 35.3066 9.99805 35.3066 10.748V10.9531C35.3066 11.6836 35.457 12.2461 35.7578 12.6406C36.0586 13.0352 36.4883 13.2324 37.0469 13.2324ZM43.8496 8.63281C43.6855 8.60547 43.5078 8.5918 43.3164 8.5918C42.6055 8.5918 42.123 8.89453 41.8691 9.5V14H40.7852V7.66016H41.8398L41.8574 8.39258C42.2129 7.82617 42.7168 7.54297 43.3691 7.54297C43.5801 7.54297 43.7402 7.57031 43.8496 7.625V8.63281ZM46.0293 14H44.9453V7.66016H46.0293V14ZM44.8574 5.97852C44.8574 5.80273 44.9102 5.6543 45.0156 5.5332C45.125 5.41211 45.2852 5.35156 45.4961 5.35156C45.707 5.35156 45.8672 5.41211 45.9766 5.5332C46.0859 5.6543 46.1406 5.80273 46.1406 5.97852C46.1406 6.1543 46.0859 6.30078 45.9766 6.41797C45.8672 6.53516 45.707 6.59375 45.4961 6.59375C45.2852 6.59375 45.125 6.53516 45.0156 6.41797C44.9102 6.30078 44.8574 6.1543 44.8574 5.97852ZM53.1367 10.9004C53.1367 11.8691 52.9141 12.6484 52.4688 13.2383C52.0234 13.8242 51.4258 14.1172 50.6758 14.1172C49.875 14.1172 49.2559 13.834 48.8184 13.2676L48.7656 14H47.7695V5H48.8535V8.35742C49.291 7.81445 49.8945 7.54297 50.6641 7.54297C51.4336 7.54297 52.0371 7.83398 52.4746 8.41602C52.916 8.99805 53.1367 9.79492 53.1367 10.8066V10.9004ZM52.0527 10.7773C52.0527 10.0391 51.9102 9.46875 51.625 9.06641C51.3398 8.66406 50.9297 8.46289 50.3945 8.46289C49.6797 8.46289 49.166 8.79492 48.8535 9.45898V12.2012C49.1855 12.8652 49.7031 13.1973 50.4062 13.1973C50.9258 13.1973 51.3301 12.9961 51.6191 12.5938C51.9082 12.1914 52.0527 11.5859 52.0527 10.7773ZM57.1387 14.1172C56.2793 14.1172 55.5801 13.8359 55.041 13.2734C54.502 12.707 54.2324 11.9512 54.2324 11.0059V10.8066C54.2324 10.1777 54.3516 9.61719 54.5898 9.125C54.832 8.62891 55.168 8.24219 55.5977 7.96484C56.0312 7.68359 56.5 7.54297 57.0039 7.54297C57.8281 7.54297 58.4688 7.81445 58.9258 8.35742C59.3828 8.90039 59.6113 9.67773 59.6113 10.6895V11.1406H55.3164C55.332 11.7656 55.5137 12.2715 55.8613 12.6582C56.2129 13.041 56.6582 13.2324 57.1973 13.2324C57.5801 13.2324 57.9043 13.1543 58.1699 12.998C58.4355 12.8418 58.668 12.6348 58.8672 12.377L59.5293 12.8926C58.998 13.709 58.2012 14.1172 57.1387 14.1172ZM57.0039 8.43359C56.5664 8.43359 56.1992 8.59375 55.9023 8.91406C55.6055 9.23047 55.4219 9.67578 55.3516 10.25H58.5273V10.168C58.4961 9.61719 58.3477 9.19141 58.082 8.89062C57.8164 8.58594 57.457 8.43359 57.0039 8.43359Z" fill="#BDBDBD"/>
<path d="M83.4668 7.66016L83.502 8.45703C83.9863 7.84766 84.6191 7.54297 85.4004 7.54297C86.7402 7.54297 87.416 8.29883 87.4277 9.81055V14H86.3438V9.80469C86.3398 9.34766 86.2344 9.00977 86.0273 8.79102C85.8242 8.57227 85.5059 8.46289 85.0723 8.46289C84.7207 8.46289 84.4121 8.55664 84.1465 8.74414C83.8809 8.93164 83.6738 9.17773 83.5254 9.48242V14H82.4414V7.66016H83.4668ZM91.6934 14.1172C90.834 14.1172 90.1348 13.8359 89.5957 13.2734C89.0566 12.707 88.7871 11.9512 88.7871 11.0059V10.8066C88.7871 10.1777 88.9062 9.61719 89.1445 9.125C89.3867 8.62891 89.7227 8.24219 90.1523 7.96484C90.5859 7.68359 91.0547 7.54297 91.5586 7.54297C92.3828 7.54297 93.0234 7.81445 93.4805 8.35742C93.9375 8.90039 94.166 9.67773 94.166 10.6895V11.1406H89.8711C89.8867 11.7656 90.0684 12.2715 90.416 12.6582C90.7676 13.041 91.2129 13.2324 91.752 13.2324C92.1348 13.2324 92.459 13.1543 92.7246 12.998C92.9902 12.8418 93.2227 12.6348 93.4219 12.377L94.084 12.8926C93.5527 13.709 92.7559 14.1172 91.6934 14.1172ZM91.5586 8.43359C91.1211 8.43359 90.7539 8.59375 90.457 8.91406C90.1602 9.23047 89.9766 9.67578 89.9062 10.25H93.082V10.168C93.0508 9.61719 92.9023 9.19141 92.6367 8.89062C92.3711 8.58594 92.0117 8.43359 91.5586 8.43359ZM101.039 12.5059L102.258 7.66016H103.342L101.496 14H100.617L99.0762 9.19531L97.5762 14H96.6973L94.8574 7.66016H95.9355L97.1836 12.4062L98.6602 7.66016H99.5332L101.039 12.5059ZM108.141 12.3184C108.141 12.0254 108.029 11.7988 107.807 11.6387C107.588 11.4746 107.203 11.334 106.652 11.2168C106.105 11.0996 105.67 10.959 105.346 10.7949C105.025 10.6309 104.787 10.4355 104.631 10.209C104.479 9.98242 104.402 9.71289 104.402 9.40039C104.402 8.88086 104.621 8.44141 105.059 8.08203C105.5 7.72266 106.062 7.54297 106.746 7.54297C107.465 7.54297 108.047 7.72852 108.492 8.09961C108.941 8.4707 109.166 8.94531 109.166 9.52344H108.076C108.076 9.22656 107.949 8.9707 107.695 8.75586C107.445 8.54102 107.129 8.43359 106.746 8.43359C106.352 8.43359 106.043 8.51953 105.82 8.69141C105.598 8.86328 105.486 9.08789 105.486 9.36523C105.486 9.62695 105.59 9.82422 105.797 9.95703C106.004 10.0898 106.377 10.2168 106.916 10.3379C107.459 10.459 107.898 10.6035 108.234 10.7715C108.57 10.9395 108.818 11.1426 108.979 11.3809C109.143 11.6152 109.225 11.9023 109.225 12.2422C109.225 12.8086 108.998 13.2637 108.545 13.6074C108.092 13.9473 107.504 14.1172 106.781 14.1172C106.273 14.1172 105.824 14.0273 105.434 13.8477C105.043 13.668 104.736 13.418 104.514 13.0977C104.295 12.7734 104.186 12.4238 104.186 12.0488H105.27C105.289 12.4121 105.434 12.7012 105.703 12.916C105.977 13.127 106.336 13.2324 106.781 13.2324C107.191 13.2324 107.52 13.1504 107.766 12.9863C108.016 12.8184 108.141 12.5957 108.141 12.3184ZM111.814 14H110.73V5H111.814V14ZM116.186 14.1172C115.326 14.1172 114.627 13.8359 114.088 13.2734C113.549 12.707 113.279 11.9512 113.279 11.0059V10.8066C113.279 10.1777 113.398 9.61719 113.637 9.125C113.879 8.62891 114.215 8.24219 114.645 7.96484C115.078 7.68359 115.547 7.54297 116.051 7.54297C116.875 7.54297 117.516 7.81445 117.973 8.35742C118.43 8.90039 118.658 9.67773 118.658 10.6895V11.1406H114.363C114.379 11.7656 114.561 12.2715 114.908 12.6582C115.26 13.041 115.705 13.2324 116.244 13.2324C116.627 13.2324 116.951 13.1543 117.217 12.998C117.482 12.8418 117.715 12.6348 117.914 12.377L118.576 12.8926C118.045 13.709 117.248 14.1172 116.186 14.1172ZM116.051 8.43359C115.613 8.43359 115.246 8.59375 114.949 8.91406C114.652 9.23047 114.469 9.67578 114.398 10.25H117.574V10.168C117.543 9.61719 117.395 9.19141 117.129 8.89062C116.863 8.58594 116.504 8.43359 116.051 8.43359ZM121.389 6.125V7.66016H122.572V8.49805H121.389V12.4297C121.389 12.6836 121.441 12.875 121.547 13.0039C121.652 13.1289 121.832 13.1914 122.086 13.1914C122.211 13.1914 122.383 13.168 122.602 13.1211V14C122.316 14.0781 122.039 14.1172 121.77 14.1172C121.285 14.1172 120.92 13.9707 120.674 13.6777C120.428 13.3848 120.305 12.9688 120.305 12.4297V8.49805H119.15V7.66016H120.305V6.125H121.389ZM125.314 6.125V7.66016H126.498V8.49805H125.314V12.4297C125.314 12.6836 125.367 12.875 125.473 13.0039C125.578 13.1289 125.758 13.1914 126.012 13.1914C126.137 13.1914 126.309 13.168 126.527 13.1211V14C126.242 14.0781 125.965 14.1172 125.695 14.1172C125.211 14.1172 124.846 13.9707 124.6 13.6777C124.354 13.3848 124.23 12.9688 124.23 12.4297V8.49805H123.076V7.66016H124.23V6.125H125.314ZM130.4 14.1172C129.541 14.1172 128.842 13.8359 128.303 13.2734C127.764 12.707 127.494 11.9512 127.494 11.0059V10.8066C127.494 10.1777 127.613 9.61719 127.852 9.125C128.094 8.62891 128.43 8.24219 128.859 7.96484C129.293 7.68359 129.762 7.54297 130.266 7.54297C131.09 7.54297 131.73 7.81445 132.188 8.35742C132.645 8.90039 132.873 9.67773 132.873 10.6895V11.1406H128.578C128.594 11.7656 128.775 12.2715 129.123 12.6582C129.475 13.041 129.92 13.2324 130.459 13.2324C130.842 13.2324 131.166 13.1543 131.432 12.998C131.697 12.8418 131.93 12.6348 132.129 12.377L132.791 12.8926C132.26 13.709 131.463 14.1172 130.4 14.1172ZM130.266 8.43359C129.828 8.43359 129.461 8.59375 129.164 8.91406C128.867 9.23047 128.684 9.67578 128.613 10.25H131.789V10.168C131.758 9.61719 131.609 9.19141 131.344 8.89062C131.078 8.58594 130.719 8.43359 130.266 8.43359ZM137.197 8.63281C137.033 8.60547 136.855 8.5918 136.664 8.5918C135.953 8.5918 135.471 8.89453 135.217 9.5V14H134.133V7.66016H135.188L135.205 8.39258C135.561 7.82617 136.064 7.54297 136.717 7.54297C136.928 7.54297 137.088 7.57031 137.197 7.625V8.63281Z" fill="#014C3E"/>
</svg>
