<svg width="334" height="341" viewBox="0 0 334 341" fill="none" xmlns="http://www.w3.org/2000/svg">
<rect width="333.187" height="340.079" fill="black" fill-opacity="0"/>
<path d="M200.964 22.107L238.376 0L226.472 37.978H257.93L239.342 62.153C239.342 62.153 217.118 49.031 200.964 22.107Z" fill="black"/>
<path d="M89.401 213.415H208.818C239.39 193.755 259.64 159.436 259.64 120.385C259.64 59.334 210.153 9.851 149.109 9.851C88.066 9.851 38.577 59.334 38.577 120.385C38.578 159.436 58.83 193.755 89.401 213.415Z" fill="#0F86DC"/>
<path d="M174.434 91.024L147.545 66.403L145.645 100.818L113.573 93.995L130.306 119.095C130.306 119.096 163.244 101.14 174.434 91.024Z" fill="black"/>
<path d="M331.393 213.415C332.571 206.807 333.187 200 333.187 193.052C333.187 129.425 281.607 77.84 217.98 77.84C154.352 77.84 102.77 129.424 102.77 193.052C102.77 200 103.387 206.807 104.564 213.415H331.393Z" fill="#00B1BC"/>
<path d="M173.32 155.548L204.308 141.073L185.933 169.846L212.356 170.949L192.451 186.729C192.452 186.729 173.461 176.28 173.32 155.548Z" fill="black"/>
<path d="M205.542 213.415C198.662 162.8 155.275 123.786 102.77 123.786C50.267 123.786 6.879 162.8 0 213.415H205.542V213.415Z" fill="#0FDCAB"/>
<path d="M138.906 169.202C138.906 174.838 134.339 179.405 128.703 179.405C123.071 179.405 118.502 174.838 118.502 169.202C118.502 163.57 123.071 159.001 128.703 159.001C134.339 159.001 138.906 163.57 138.906 169.202Z" fill="black"/>
<path d="M165.543 58.288C171.178 58.288 175.746 53.72 175.746 48.085C175.746 42.45 171.178 37.882 165.543 37.882C159.908 37.882 155.34 42.45 155.34 48.085C155.34 53.72 159.908 58.288 165.543 58.288Z" fill="black"/>
<path d="M197.938 133.991C203.572 133.991 208.14 129.423 208.14 123.789C208.14 118.155 203.572 113.587 197.938 113.587C192.304 113.587 187.736 118.155 187.736 123.789C187.736 129.423 192.304 133.991 197.938 133.991Z" fill="black"/>
<rect width="320.473" height="117.079" fill="black" fill-opacity="0" transform="translate(6 223)"/>
<path d="M6 331.073V230.584C6 228.162 7.051 226.293 9.16 224.975C11.265 223.66 13.793 223 16.744 223H49.133C70.199 223 80.733 232.376 80.733 251.124C80.733 263.764 76.256 272.034 67.303 275.93C72.676 277.932 76.729 280.803 79.469 284.541C82.207 288.281 83.578 293.838 83.578 301.209V304.527C83.578 316.326 80.707 324.937 74.967 330.361C69.225 335.787 61.51 338.498 51.819 338.498H16.745C13.477 338.498 10.872 337.762 8.923 336.285C6.972 334.813 6 333.075 6 331.073ZM30.49 266.451H47.08C49.924 266.451 52.135 265.372 53.715 263.212C55.295 261.055 56.086 258.499 56.086 255.549C56.086 252.602 55.295 250.019 53.715 247.807C52.135 245.595 49.924 244.49 47.08 244.49H30.49V266.451ZM30.49 317.011H46.289C54.715 317.011 58.93 312.167 58.93 302.474V299.947C58.93 290.258 54.715 285.412 46.289 285.412H30.49V317.011Z" fill="#231F20"/>
<path d="M92.372 306.583V295.522C92.372 286.571 95.901 278.801 102.958 272.217C110.015 265.635 118.442 262.342 128.239 262.342C137.928 262.342 146.354 265.609 153.518 272.137C160.68 278.67 164.262 286.463 164.262 295.522V306.583C164.262 315.431 160.653 323.228 153.44 329.966C146.223 336.708 137.823 340.079 128.239 340.079C118.653 340.079 110.278 336.708 103.116 329.966C95.952 323.227 92.372 315.431 92.372 306.583ZM116.862 306.532C116.862 309.665 117.969 312.458 120.18 314.911C122.393 317.366 125.078 318.591 128.239 318.591C131.4 318.591 134.11 317.366 136.376 314.911C138.64 312.458 139.772 309.665 139.772 306.532V295.575C139.772 292.548 138.612 289.833 136.297 287.432C133.979 285.032 131.291 283.83 128.238 283.83C125.181 283.83 122.523 285.031 120.259 287.432C117.991 289.832 116.861 292.547 116.861 295.575V306.532H116.862Z" fill="#231F20"/>
<path d="M172.583 312.186V239.481C172.583 237.407 173.847 235.669 176.374 234.267C178.903 232.865 181.692 232.163 184.749 232.163C188.013 232.163 190.884 232.842 193.36 234.195C195.833 235.548 197.073 237.226 197.073 239.231V263.289H214.927C216.823 263.289 218.296 264.237 219.351 266.133C220.402 268.029 220.931 270.242 220.931 272.769C220.931 275.414 220.402 277.654 219.351 279.492C218.296 281.332 216.824 282.25 214.927 282.25H197.073V311.266C197.073 313.428 197.546 314.924 198.495 315.758C199.442 316.592 201.126 317.01 203.55 317.01H210.345C213.714 317.01 216.294 318.086 218.087 320.235C219.876 322.381 220.773 324.891 220.773 327.755C220.773 330.732 219.877 333.265 218.087 335.359C216.294 337.453 213.714 338.5 210.345 338.5H203.55C182.905 338.499 172.583 329.729 172.583 312.186Z" fill="#231F20"/>
<path d="M236.256 309.427V268.347C236.256 267.083 236.912 265.976 238.231 265.029C239.545 264.081 241.098 263.607 242.891 263.607C244.575 263.607 246.077 264.108 247.395 265.105C248.709 266.102 249.37 267.179 249.37 268.335V309.314C249.37 314.044 251.159 318.3 254.741 322.082C258.321 325.865 262.587 327.756 267.54 327.756C272.384 327.756 276.599 325.893 280.181 322.162C283.759 318.432 285.552 314.148 285.552 309.314V268.177C285.552 267.021 286.208 265.971 287.527 265.026C288.843 264.081 290.396 263.607 292.189 263.607C294.084 263.607 295.638 264.056 296.849 264.95C298.06 265.846 298.665 266.925 298.665 268.189V309.427C298.665 317.538 295.585 324.622 289.423 330.677C283.261 336.736 275.966 339.763 267.54 339.763C259.009 339.763 251.661 336.736 245.499 330.677C239.336 324.622 236.256 317.538 236.256 309.427Z" fill="#231F20"/>
<path d="M312.646 240.776C311.011 239.25 310.197 237.485 310.197 235.483C310.197 233.483 310.988 231.745 312.568 230.268C314.148 228.794 316.095 228.056 318.414 228.056C320.625 228.056 322.521 228.794 324.102 230.268C325.682 231.745 326.473 233.483 326.473 235.483C326.473 237.485 325.682 239.25 324.102 240.776C322.522 242.303 320.625 243.067 318.414 243.067C316.201 243.067 314.279 242.303 312.646 240.776ZM311.935 333.759V268.189C311.935 266.821 312.568 265.716 313.831 264.871C315.095 264.029 316.62 263.607 318.413 263.607C320.309 263.607 321.89 264.029 323.153 264.871C324.417 265.716 325.048 266.821 325.048 268.189V333.759C325.048 334.919 324.39 335.997 323.073 336.997C321.755 337.999 320.202 338.499 318.413 338.499C316.62 338.499 315.095 338.024 313.831 337.077C312.568 336.128 311.935 335.022 311.935 333.759Z" fill="#231F20"/>
</svg>
